<mxfile host="app.diagrams.net" agent="Mozilla/5.0 (Windows NT 10.0; Win64; x64) AppleWebKit/537.36 (KHTML, like Gecko) Chrome/131.0.0.0 Safari/537.36" version="26.0.2">
  <diagram name="第 1 页" id="f2PqT4j0ndIyucW2YcRP">
    <mxGraphModel dx="1034" dy="446" grid="1" gridSize="10" guides="1" tooltips="1" connect="1" arrows="1" fold="1" page="1" pageScale="1" pageWidth="827" pageHeight="1169" math="0" shadow="0">
      <root>
        <mxCell id="0" />
        <mxCell id="1" parent="0" />
        <mxCell id="2roLQ8-Fkyhj2KdTcmB--3" style="edgeStyle=orthogonalEdgeStyle;rounded=0;orthogonalLoop=1;jettySize=auto;html=1;exitX=0.5;exitY=1;exitDx=0;exitDy=0;" edge="1" parent="1" source="2roLQ8-Fkyhj2KdTcmB--1">
          <mxGeometry relative="1" as="geometry">
            <mxPoint x="125" y="90" as="targetPoint" />
          </mxGeometry>
        </mxCell>
        <mxCell id="2roLQ8-Fkyhj2KdTcmB--6" style="edgeStyle=orthogonalEdgeStyle;rounded=0;orthogonalLoop=1;jettySize=auto;html=1;exitX=0.5;exitY=1;exitDx=0;exitDy=0;entryX=0.5;entryY=0;entryDx=0;entryDy=0;" edge="1" parent="1" source="2roLQ8-Fkyhj2KdTcmB--1" target="2roLQ8-Fkyhj2KdTcmB--5">
          <mxGeometry relative="1" as="geometry" />
        </mxCell>
        <mxCell id="2roLQ8-Fkyhj2KdTcmB--1" value="授权账号登录" style="ellipse;whiteSpace=wrap;html=1;" vertex="1" parent="1">
          <mxGeometry x="80" y="40" width="90" height="50" as="geometry" />
        </mxCell>
        <mxCell id="2roLQ8-Fkyhj2KdTcmB--8" style="edgeStyle=orthogonalEdgeStyle;rounded=0;orthogonalLoop=1;jettySize=auto;html=1;exitX=0.5;exitY=1;exitDx=0;exitDy=0;entryX=0.5;entryY=0;entryDx=0;entryDy=0;" edge="1" parent="1" source="2roLQ8-Fkyhj2KdTcmB--2" target="2roLQ8-Fkyhj2KdTcmB--7">
          <mxGeometry relative="1" as="geometry" />
        </mxCell>
        <mxCell id="2roLQ8-Fkyhj2KdTcmB--2" value="非授权账号登录" style="ellipse;whiteSpace=wrap;html=1;" vertex="1" parent="1">
          <mxGeometry x="220" y="40" width="90" height="50" as="geometry" />
        </mxCell>
        <mxCell id="2roLQ8-Fkyhj2KdTcmB--5" value="查看日志" style="rounded=1;whiteSpace=wrap;html=1;" vertex="1" parent="1">
          <mxGeometry x="87.5" y="130" width="75" height="30" as="geometry" />
        </mxCell>
        <mxCell id="2roLQ8-Fkyhj2KdTcmB--7" value="查看日志" style="rounded=1;whiteSpace=wrap;html=1;" vertex="1" parent="1">
          <mxGeometry x="227.5" y="130" width="75" height="30" as="geometry" />
        </mxCell>
        <mxCell id="2roLQ8-Fkyhj2KdTcmB--9" value="对比日志" style="rhombus;whiteSpace=wrap;html=1;" vertex="1" parent="1">
          <mxGeometry x="162.5" y="210" width="80" height="60" as="geometry" />
        </mxCell>
        <mxCell id="2roLQ8-Fkyhj2KdTcmB--10" value="" style="endArrow=classic;html=1;rounded=0;exitX=0.5;exitY=1;exitDx=0;exitDy=0;entryX=0.5;entryY=0;entryDx=0;entryDy=0;" edge="1" parent="1" source="2roLQ8-Fkyhj2KdTcmB--5" target="2roLQ8-Fkyhj2KdTcmB--9">
          <mxGeometry width="50" height="50" relative="1" as="geometry">
            <mxPoint x="390" y="260" as="sourcePoint" />
            <mxPoint x="440" y="210" as="targetPoint" />
          </mxGeometry>
        </mxCell>
        <mxCell id="2roLQ8-Fkyhj2KdTcmB--11" value="" style="endArrow=classic;html=1;rounded=0;exitX=0.5;exitY=1;exitDx=0;exitDy=0;entryX=0.5;entryY=0;entryDx=0;entryDy=0;" edge="1" parent="1" source="2roLQ8-Fkyhj2KdTcmB--7" target="2roLQ8-Fkyhj2KdTcmB--9">
          <mxGeometry width="50" height="50" relative="1" as="geometry">
            <mxPoint x="390" y="260" as="sourcePoint" />
            <mxPoint x="440" y="210" as="targetPoint" />
          </mxGeometry>
        </mxCell>
      </root>
    </mxGraphModel>
  </diagram>
</mxfile>
